<?xml version="1.0" encoding="utf-8"?>
<!-- Generator: Adobe Illustrator 16.0.0, SVG Export Plug-In . SVG Version: 6.00 Build 0)  -->
<!DOCTYPE svg PUBLIC "-//W3C//DTD SVG 1.1//EN" "http://www.w3.org/Graphics/SVG/1.1/DTD/svg11.dtd">
<svg version="1.1" id="Layer_1" xmlns="http://www.w3.org/2000/svg" xmlns:xlink="http://www.w3.org/1999/xlink" x="0px" y="0px"
	 width="17px" height="12px" viewBox="0 0 17 12" enable-background="new 0 0 17 12" xml:space="preserve">
<path fill-rule="evenodd" clip-rule="evenodd" fill="#FFFFFF" d="M16,12H1c-0.553,0-1-0.447-1-0.999V1c0-0.552,0.447-1,1-1h15
	c0.552,0,1,0.448,1,1v10.001C17,11.553,16.552,12,16,12z M8.502,6.002L12.504,2H4.5L8.502,6.002z M9.571,7.907l5.336-5.335
	C15.021,2.458,15,10.001,15,10.001H2c0,0,0.071-7.601,0.174-7.498L7.3,7.899C7.479,8.079,9.375,8.104,9.571,7.907z"/>
</svg>
