<svg version="1.1" id="Layer_1" xmlns="http://www.w3.org/2000/svg" xmlns:xlink="http://www.w3.org/1999/xlink" x="0px" y="0px"
	 width="14px" height="14px" viewBox="0 0 14 14" enable-background="new 0 0 14 14" xml:space="preserve">
<path fill-rule="evenodd" clip-rule="evenodd" fill="#2D2D2D" d="M13.708,12.302l-2.885-2.884c1.659-2.332,1.459-5.579-0.633-7.67
	c-2.331-2.331-6.111-2.331-8.442,0c-2.331,2.332-2.331,6.112,0,8.443c2.09,2.091,5.337,2.291,7.668,0.632l2.886,2.885
	c0.389,0.39,1.018,0.39,1.406,0C14.097,13.319,14.097,12.69,13.708,12.302z M3.155,8.785c-1.554-1.556-1.554-4.074,0-5.629
	c1.555-1.555,4.074-1.555,5.629,0c1.555,1.555,1.555,4.073,0,5.629C7.229,10.338,4.709,10.338,3.155,8.785z"/>
</svg>
