<?xml version="1.0" encoding="utf-8"?>
<!-- Generator: Adobe Illustrator 16.0.0, SVG Export Plug-In . SVG Version: 6.00 Build 0)  -->
<!DOCTYPE svg PUBLIC "-//W3C//DTD SVG 1.1//EN" "http://www.w3.org/Graphics/SVG/1.1/DTD/svg11.dtd">
<svg version="1.1" id="Layer_1" xmlns="http://www.w3.org/2000/svg" xmlns:xlink="http://www.w3.org/1999/xlink" x="0px" y="0px"
	 width="23.999px" height="18.001px" viewBox="0 0 23.999 18.001" enable-background="new 0 0 23.999 18.001" xml:space="preserve">
<path d="M23.038,2.646c-0.464-1.032-1.654-1.963-2.771-2.167C20.161,0.459,17.599,0,11.99,0C6.398,0,3.837,0.459,3.73,0.479
	C2.611,0.684,1.42,1.616,0.96,2.646C0.921,2.733,0,4.834,0,9c0,4.167,0.921,6.264,0.959,6.35c0.46,1.032,1.651,1.966,2.771,2.172
	c0.106,0.021,2.668,0.479,8.26,0.479h0.016c5.593,0,8.155-0.459,8.263-0.479c1.117-0.206,2.308-1.139,2.77-2.169
	c0.039-0.087,0.961-2.186,0.961-6.353C23.999,4.834,23.077,2.733,23.038,2.646z M21.213,14.535c-0.193,0.428-0.841,0.934-1.307,1.02
	C19.883,15.56,17.383,16,12.006,16H11.99c-5.377,0-7.874-0.44-7.896-0.444c-0.469-0.087-1.116-0.592-1.305-1.016
	C2.781,14.521,2.002,12.687,2.002,9c0-3.688,0.779-5.523,0.785-5.536c0.19-0.429,0.838-0.933,1.305-1.019
	c0.024-0.004,2.521-0.444,7.914-0.444c5.377,0,7.877,0.44,7.9,0.443c0.466,0.086,1.113,0.592,1.304,1.015
	C21.218,3.477,21.997,5.313,21.997,9C21.997,12.687,21.218,14.521,21.213,14.535z M15.507,8.142l-5.004-2.999
	c-0.309-0.186-0.694-0.19-1.009-0.014C9.181,5.307,8.987,5.64,8.987,5.999v6c0,0.362,0.193,0.694,0.507,0.87
	c0.153,0.088,0.323,0.132,0.494,0.132c0.178,0,0.356-0.048,0.515-0.144l5.004-3C15.808,9.677,15.992,9.352,15.992,9
	C15.992,8.647,15.808,8.323,15.507,8.142z"/>
</svg>
