<?xml version="1.0" encoding="utf-8"?>
<!-- Generator: Adobe Illustrator 16.0.0, SVG Export Plug-In . SVG Version: 6.00 Build 0)  -->
<!DOCTYPE svg PUBLIC "-//W3C//DTD SVG 1.1//EN" "http://www.w3.org/Graphics/SVG/1.1/DTD/svg11.dtd">
<svg version="1.1" id="Layer_1" xmlns="http://www.w3.org/2000/svg" xmlns:xlink="http://www.w3.org/1999/xlink" x="0px" y="0px"
	 width="38px" height="35.001px" viewBox="0 0 38 35.001" enable-background="new 0 0 38 35.001" xml:space="preserve">
<g>
	<g>
		<path fill-rule="evenodd" clip-rule="evenodd" fill="#2D2D2D" d="M37.848,15.205c-0.211-1.865-0.737-3.641-1.562-5.314
			c-2.38-4.831-6.165-7.941-11.294-9.358c-1.383-0.381-2.801-0.582-4.287-0.51v34.979h1.031c0.359-0.053,0.719-0.114,1.079-0.157
			c3.287-0.392,6.21-1.663,8.778-3.767c2.97-2.432,4.929-5.536,5.869-9.284c0.222-0.883,0.309-1.8,0.461-2.7
			c0.015-0.088,0.051-0.172,0.076-0.257v-2.654C37.949,15.856,37.885,15.533,37.848,15.205z M12.37,18.172
			c-4.52,1.426-7.942,4.227-10.234,8.428c-1.083,1.984-1.756,4.11-1.982,6.374C0.112,33.382,0.051,33.79,0,34.198v0.804h17.374
			V17.476c-0.091-0.021-0.141-0.043-0.19-0.042C15.545,17.453,13.938,17.677,12.37,18.172z M10.012,13.927
			c4.088,0.246,7.316-2.974,7.337-6.93c0.02-3.902-3.073-7.014-6.871-6.997C6.791-0.046,3.636,2.954,3.58,6.848
			C3.523,10.816,6.574,13.72,10.012,13.927z"/>
	</g>
</g>
</svg>
